<mxfile host="app.diagrams.net" modified="2024-05-14T06:55:06.174Z" agent="Mozilla/5.0 (X11; Linux x86_64; rv:125.0) Gecko/20100101 Firefox/125.0" etag="51RVkgv-UsTf4dj3Dv9u" version="24.4.0" type="github">
  <diagram name="Page-1" id="IqNj36Zu_kX8CTcl1zhe">
    <mxGraphModel dx="2234" dy="359" grid="0" gridSize="10" guides="1" tooltips="1" connect="1" arrows="1" fold="1" page="0" pageScale="1" pageWidth="850" pageHeight="1100" math="1" shadow="0">
      <root>
        <mxCell id="0" />
        <mxCell id="1" parent="0" />
        <mxCell id="38Q99OW14iY6zfwDgIN2-242" value="" style="shape=table;startSize=0;container=1;collapsible=0;childLayout=tableLayout;" parent="1" vertex="1">
          <mxGeometry x="114" y="682" width="362" height="328" as="geometry" />
        </mxCell>
        <mxCell id="38Q99OW14iY6zfwDgIN2-243" value="" style="shape=tableRow;horizontal=0;startSize=0;swimlaneHead=0;swimlaneBody=0;strokeColor=inherit;top=0;left=0;bottom=0;right=0;collapsible=0;dropTarget=0;fillColor=none;points=[[0,0.5],[1,0.5]];portConstraint=eastwest;" parent="38Q99OW14iY6zfwDgIN2-242" vertex="1">
          <mxGeometry width="362" height="66" as="geometry" />
        </mxCell>
        <mxCell id="38Q99OW14iY6zfwDgIN2-244" value="" style="shape=partialRectangle;html=1;whiteSpace=wrap;connectable=0;strokeColor=inherit;overflow=hidden;fillColor=none;top=0;left=0;bottom=0;right=0;pointerEvents=1;" parent="38Q99OW14iY6zfwDgIN2-243" vertex="1">
          <mxGeometry width="73" height="66" as="geometry">
            <mxRectangle width="73" height="66" as="alternateBounds" />
          </mxGeometry>
        </mxCell>
        <mxCell id="38Q99OW14iY6zfwDgIN2-245" value="" style="shape=partialRectangle;html=1;whiteSpace=wrap;connectable=0;strokeColor=inherit;overflow=hidden;fillColor=none;top=0;left=0;bottom=0;right=0;pointerEvents=1;" parent="38Q99OW14iY6zfwDgIN2-243" vertex="1">
          <mxGeometry x="73" width="72" height="66" as="geometry">
            <mxRectangle width="72" height="66" as="alternateBounds" />
          </mxGeometry>
        </mxCell>
        <mxCell id="38Q99OW14iY6zfwDgIN2-246" value="" style="shape=partialRectangle;html=1;whiteSpace=wrap;connectable=0;strokeColor=inherit;overflow=hidden;fillColor=none;top=0;left=0;bottom=0;right=0;pointerEvents=1;" parent="38Q99OW14iY6zfwDgIN2-243" vertex="1">
          <mxGeometry x="145" width="72" height="66" as="geometry">
            <mxRectangle width="72" height="66" as="alternateBounds" />
          </mxGeometry>
        </mxCell>
        <mxCell id="38Q99OW14iY6zfwDgIN2-247" value="" style="shape=partialRectangle;html=1;whiteSpace=wrap;connectable=0;strokeColor=inherit;overflow=hidden;fillColor=none;top=0;left=0;bottom=0;right=0;pointerEvents=1;" parent="38Q99OW14iY6zfwDgIN2-243" vertex="1">
          <mxGeometry x="217" width="72" height="66" as="geometry">
            <mxRectangle width="72" height="66" as="alternateBounds" />
          </mxGeometry>
        </mxCell>
        <mxCell id="38Q99OW14iY6zfwDgIN2-248" value="" style="shape=partialRectangle;html=1;whiteSpace=wrap;connectable=0;strokeColor=inherit;overflow=hidden;fillColor=none;top=0;left=0;bottom=0;right=0;pointerEvents=1;" parent="38Q99OW14iY6zfwDgIN2-243" vertex="1">
          <mxGeometry x="289" width="73" height="66" as="geometry">
            <mxRectangle width="73" height="66" as="alternateBounds" />
          </mxGeometry>
        </mxCell>
        <mxCell id="38Q99OW14iY6zfwDgIN2-249" value="" style="shape=tableRow;horizontal=0;startSize=0;swimlaneHead=0;swimlaneBody=0;strokeColor=inherit;top=0;left=0;bottom=0;right=0;collapsible=0;dropTarget=0;fillColor=none;points=[[0,0.5],[1,0.5]];portConstraint=eastwest;" parent="38Q99OW14iY6zfwDgIN2-242" vertex="1">
          <mxGeometry y="66" width="362" height="65" as="geometry" />
        </mxCell>
        <mxCell id="38Q99OW14iY6zfwDgIN2-250" value="" style="shape=partialRectangle;html=1;whiteSpace=wrap;connectable=0;strokeColor=inherit;overflow=hidden;fillColor=none;top=0;left=0;bottom=0;right=0;pointerEvents=1;" parent="38Q99OW14iY6zfwDgIN2-249" vertex="1">
          <mxGeometry width="73" height="65" as="geometry">
            <mxRectangle width="73" height="65" as="alternateBounds" />
          </mxGeometry>
        </mxCell>
        <mxCell id="38Q99OW14iY6zfwDgIN2-251" value="" style="shape=partialRectangle;html=1;whiteSpace=wrap;connectable=0;strokeColor=inherit;overflow=hidden;fillColor=none;top=0;left=0;bottom=0;right=0;pointerEvents=1;" parent="38Q99OW14iY6zfwDgIN2-249" vertex="1">
          <mxGeometry x="73" width="72" height="65" as="geometry">
            <mxRectangle width="72" height="65" as="alternateBounds" />
          </mxGeometry>
        </mxCell>
        <mxCell id="38Q99OW14iY6zfwDgIN2-252" value="" style="shape=partialRectangle;html=1;whiteSpace=wrap;connectable=0;strokeColor=inherit;overflow=hidden;fillColor=none;top=0;left=0;bottom=0;right=0;pointerEvents=1;" parent="38Q99OW14iY6zfwDgIN2-249" vertex="1">
          <mxGeometry x="145" width="72" height="65" as="geometry">
            <mxRectangle width="72" height="65" as="alternateBounds" />
          </mxGeometry>
        </mxCell>
        <mxCell id="38Q99OW14iY6zfwDgIN2-253" value="" style="shape=partialRectangle;html=1;whiteSpace=wrap;connectable=0;strokeColor=inherit;overflow=hidden;fillColor=none;top=0;left=0;bottom=0;right=0;pointerEvents=1;" parent="38Q99OW14iY6zfwDgIN2-249" vertex="1">
          <mxGeometry x="217" width="72" height="65" as="geometry">
            <mxRectangle width="72" height="65" as="alternateBounds" />
          </mxGeometry>
        </mxCell>
        <mxCell id="38Q99OW14iY6zfwDgIN2-254" value="" style="shape=partialRectangle;html=1;whiteSpace=wrap;connectable=0;strokeColor=inherit;overflow=hidden;fillColor=none;top=0;left=0;bottom=0;right=0;pointerEvents=1;" parent="38Q99OW14iY6zfwDgIN2-249" vertex="1">
          <mxGeometry x="289" width="73" height="65" as="geometry">
            <mxRectangle width="73" height="65" as="alternateBounds" />
          </mxGeometry>
        </mxCell>
        <mxCell id="38Q99OW14iY6zfwDgIN2-255" value="" style="shape=tableRow;horizontal=0;startSize=0;swimlaneHead=0;swimlaneBody=0;strokeColor=inherit;top=0;left=0;bottom=0;right=0;collapsible=0;dropTarget=0;fillColor=none;points=[[0,0.5],[1,0.5]];portConstraint=eastwest;" parent="38Q99OW14iY6zfwDgIN2-242" vertex="1">
          <mxGeometry y="131" width="362" height="66" as="geometry" />
        </mxCell>
        <mxCell id="38Q99OW14iY6zfwDgIN2-256" value="" style="shape=partialRectangle;html=1;whiteSpace=wrap;connectable=0;strokeColor=inherit;overflow=hidden;fillColor=none;top=0;left=0;bottom=0;right=0;pointerEvents=1;" parent="38Q99OW14iY6zfwDgIN2-255" vertex="1">
          <mxGeometry width="73" height="66" as="geometry">
            <mxRectangle width="73" height="66" as="alternateBounds" />
          </mxGeometry>
        </mxCell>
        <mxCell id="38Q99OW14iY6zfwDgIN2-257" value="" style="shape=partialRectangle;html=1;whiteSpace=wrap;connectable=0;strokeColor=inherit;overflow=hidden;fillColor=none;top=0;left=0;bottom=0;right=0;pointerEvents=1;" parent="38Q99OW14iY6zfwDgIN2-255" vertex="1">
          <mxGeometry x="73" width="72" height="66" as="geometry">
            <mxRectangle width="72" height="66" as="alternateBounds" />
          </mxGeometry>
        </mxCell>
        <mxCell id="38Q99OW14iY6zfwDgIN2-258" value="" style="shape=partialRectangle;html=1;whiteSpace=wrap;connectable=0;strokeColor=inherit;overflow=hidden;fillColor=none;top=0;left=0;bottom=0;right=0;pointerEvents=1;" parent="38Q99OW14iY6zfwDgIN2-255" vertex="1">
          <mxGeometry x="145" width="72" height="66" as="geometry">
            <mxRectangle width="72" height="66" as="alternateBounds" />
          </mxGeometry>
        </mxCell>
        <mxCell id="38Q99OW14iY6zfwDgIN2-259" value="" style="shape=partialRectangle;html=1;whiteSpace=wrap;connectable=0;strokeColor=inherit;overflow=hidden;fillColor=none;top=0;left=0;bottom=0;right=0;pointerEvents=1;" parent="38Q99OW14iY6zfwDgIN2-255" vertex="1">
          <mxGeometry x="217" width="72" height="66" as="geometry">
            <mxRectangle width="72" height="66" as="alternateBounds" />
          </mxGeometry>
        </mxCell>
        <mxCell id="38Q99OW14iY6zfwDgIN2-260" value="" style="shape=partialRectangle;html=1;whiteSpace=wrap;connectable=0;strokeColor=inherit;overflow=hidden;fillColor=none;top=0;left=0;bottom=0;right=0;pointerEvents=1;" parent="38Q99OW14iY6zfwDgIN2-255" vertex="1">
          <mxGeometry x="289" width="73" height="66" as="geometry">
            <mxRectangle width="73" height="66" as="alternateBounds" />
          </mxGeometry>
        </mxCell>
        <mxCell id="38Q99OW14iY6zfwDgIN2-261" value="" style="shape=tableRow;horizontal=0;startSize=0;swimlaneHead=0;swimlaneBody=0;strokeColor=inherit;top=0;left=0;bottom=0;right=0;collapsible=0;dropTarget=0;fillColor=none;points=[[0,0.5],[1,0.5]];portConstraint=eastwest;" parent="38Q99OW14iY6zfwDgIN2-242" vertex="1">
          <mxGeometry y="197" width="362" height="65" as="geometry" />
        </mxCell>
        <mxCell id="38Q99OW14iY6zfwDgIN2-262" value="" style="shape=partialRectangle;html=1;whiteSpace=wrap;connectable=0;strokeColor=#314354;overflow=hidden;fillColor=#647687;top=0;left=0;bottom=0;right=0;pointerEvents=1;fontColor=#ffffff;" parent="38Q99OW14iY6zfwDgIN2-261" vertex="1">
          <mxGeometry width="73" height="65" as="geometry">
            <mxRectangle width="73" height="65" as="alternateBounds" />
          </mxGeometry>
        </mxCell>
        <mxCell id="38Q99OW14iY6zfwDgIN2-263" value="" style="shape=partialRectangle;html=1;whiteSpace=wrap;connectable=0;strokeColor=inherit;overflow=hidden;fillColor=none;top=0;left=0;bottom=0;right=0;pointerEvents=1;" parent="38Q99OW14iY6zfwDgIN2-261" vertex="1">
          <mxGeometry x="73" width="72" height="65" as="geometry">
            <mxRectangle width="72" height="65" as="alternateBounds" />
          </mxGeometry>
        </mxCell>
        <mxCell id="38Q99OW14iY6zfwDgIN2-264" value="" style="shape=partialRectangle;html=1;whiteSpace=wrap;connectable=0;strokeColor=inherit;overflow=hidden;fillColor=none;top=0;left=0;bottom=0;right=0;pointerEvents=1;" parent="38Q99OW14iY6zfwDgIN2-261" vertex="1">
          <mxGeometry x="145" width="72" height="65" as="geometry">
            <mxRectangle width="72" height="65" as="alternateBounds" />
          </mxGeometry>
        </mxCell>
        <mxCell id="38Q99OW14iY6zfwDgIN2-265" value="" style="shape=partialRectangle;html=1;whiteSpace=wrap;connectable=0;strokeColor=inherit;overflow=hidden;fillColor=none;top=0;left=0;bottom=0;right=0;pointerEvents=1;" parent="38Q99OW14iY6zfwDgIN2-261" vertex="1">
          <mxGeometry x="217" width="72" height="65" as="geometry">
            <mxRectangle width="72" height="65" as="alternateBounds" />
          </mxGeometry>
        </mxCell>
        <mxCell id="38Q99OW14iY6zfwDgIN2-266" value="" style="shape=partialRectangle;html=1;whiteSpace=wrap;connectable=0;strokeColor=inherit;overflow=hidden;fillColor=none;top=0;left=0;bottom=0;right=0;pointerEvents=1;" parent="38Q99OW14iY6zfwDgIN2-261" vertex="1">
          <mxGeometry x="289" width="73" height="65" as="geometry">
            <mxRectangle width="73" height="65" as="alternateBounds" />
          </mxGeometry>
        </mxCell>
        <mxCell id="38Q99OW14iY6zfwDgIN2-267" value="" style="shape=tableRow;horizontal=0;startSize=0;swimlaneHead=0;swimlaneBody=0;strokeColor=inherit;top=0;left=0;bottom=0;right=0;collapsible=0;dropTarget=0;fillColor=none;points=[[0,0.5],[1,0.5]];portConstraint=eastwest;" parent="38Q99OW14iY6zfwDgIN2-242" vertex="1">
          <mxGeometry y="262" width="362" height="66" as="geometry" />
        </mxCell>
        <mxCell id="38Q99OW14iY6zfwDgIN2-268" value="" style="shape=partialRectangle;html=1;whiteSpace=wrap;connectable=0;strokeColor=inherit;overflow=hidden;fillColor=none;top=0;left=0;bottom=0;right=0;pointerEvents=1;" parent="38Q99OW14iY6zfwDgIN2-267" vertex="1">
          <mxGeometry width="73" height="66" as="geometry">
            <mxRectangle width="73" height="66" as="alternateBounds" />
          </mxGeometry>
        </mxCell>
        <mxCell id="38Q99OW14iY6zfwDgIN2-269" value="" style="shape=partialRectangle;html=1;whiteSpace=wrap;connectable=0;strokeColor=#314354;overflow=hidden;fillColor=#647687;top=0;left=0;bottom=0;right=0;pointerEvents=1;fontColor=#ffffff;" parent="38Q99OW14iY6zfwDgIN2-267" vertex="1">
          <mxGeometry x="73" width="72" height="66" as="geometry">
            <mxRectangle width="72" height="66" as="alternateBounds" />
          </mxGeometry>
        </mxCell>
        <mxCell id="38Q99OW14iY6zfwDgIN2-270" value="" style="shape=partialRectangle;html=1;whiteSpace=wrap;connectable=0;strokeColor=inherit;overflow=hidden;fillColor=none;top=0;left=0;bottom=0;right=0;pointerEvents=1;" parent="38Q99OW14iY6zfwDgIN2-267" vertex="1">
          <mxGeometry x="145" width="72" height="66" as="geometry">
            <mxRectangle width="72" height="66" as="alternateBounds" />
          </mxGeometry>
        </mxCell>
        <mxCell id="38Q99OW14iY6zfwDgIN2-271" value="" style="shape=partialRectangle;html=1;whiteSpace=wrap;connectable=0;strokeColor=inherit;overflow=hidden;fillColor=none;top=0;left=0;bottom=0;right=0;pointerEvents=1;" parent="38Q99OW14iY6zfwDgIN2-267" vertex="1">
          <mxGeometry x="217" width="72" height="66" as="geometry">
            <mxRectangle width="72" height="66" as="alternateBounds" />
          </mxGeometry>
        </mxCell>
        <mxCell id="38Q99OW14iY6zfwDgIN2-272" value="" style="shape=partialRectangle;html=1;whiteSpace=wrap;connectable=0;strokeColor=inherit;overflow=hidden;fillColor=none;top=0;left=0;bottom=0;right=0;pointerEvents=1;" parent="38Q99OW14iY6zfwDgIN2-267" vertex="1">
          <mxGeometry x="289" width="73" height="66" as="geometry">
            <mxRectangle width="73" height="66" as="alternateBounds" />
          </mxGeometry>
        </mxCell>
        <mxCell id="38Q99OW14iY6zfwDgIN2-273" value="" style="shape=table;startSize=0;container=1;collapsible=0;childLayout=tableLayout;" parent="1" vertex="1">
          <mxGeometry x="-560" y="690" width="362" height="328" as="geometry" />
        </mxCell>
        <mxCell id="38Q99OW14iY6zfwDgIN2-274" value="" style="shape=tableRow;horizontal=0;startSize=0;swimlaneHead=0;swimlaneBody=0;strokeColor=inherit;top=0;left=0;bottom=0;right=0;collapsible=0;dropTarget=0;fillColor=none;points=[[0,0.5],[1,0.5]];portConstraint=eastwest;" parent="38Q99OW14iY6zfwDgIN2-273" vertex="1">
          <mxGeometry width="362" height="66" as="geometry" />
        </mxCell>
        <mxCell id="38Q99OW14iY6zfwDgIN2-275" value="" style="shape=partialRectangle;html=1;whiteSpace=wrap;connectable=0;strokeColor=inherit;overflow=hidden;fillColor=none;top=0;left=0;bottom=0;right=0;pointerEvents=1;" parent="38Q99OW14iY6zfwDgIN2-274" vertex="1">
          <mxGeometry width="73" height="66" as="geometry">
            <mxRectangle width="73" height="66" as="alternateBounds" />
          </mxGeometry>
        </mxCell>
        <mxCell id="38Q99OW14iY6zfwDgIN2-276" value="" style="shape=partialRectangle;html=1;whiteSpace=wrap;connectable=0;strokeColor=inherit;overflow=hidden;fillColor=none;top=0;left=0;bottom=0;right=0;pointerEvents=1;" parent="38Q99OW14iY6zfwDgIN2-274" vertex="1">
          <mxGeometry x="73" width="72" height="66" as="geometry">
            <mxRectangle width="72" height="66" as="alternateBounds" />
          </mxGeometry>
        </mxCell>
        <mxCell id="38Q99OW14iY6zfwDgIN2-277" value="" style="shape=partialRectangle;html=1;whiteSpace=wrap;connectable=0;strokeColor=inherit;overflow=hidden;fillColor=none;top=0;left=0;bottom=0;right=0;pointerEvents=1;" parent="38Q99OW14iY6zfwDgIN2-274" vertex="1">
          <mxGeometry x="145" width="72" height="66" as="geometry">
            <mxRectangle width="72" height="66" as="alternateBounds" />
          </mxGeometry>
        </mxCell>
        <mxCell id="38Q99OW14iY6zfwDgIN2-278" value="" style="shape=partialRectangle;html=1;whiteSpace=wrap;connectable=0;strokeColor=inherit;overflow=hidden;fillColor=none;top=0;left=0;bottom=0;right=0;pointerEvents=1;" parent="38Q99OW14iY6zfwDgIN2-274" vertex="1">
          <mxGeometry x="217" width="72" height="66" as="geometry">
            <mxRectangle width="72" height="66" as="alternateBounds" />
          </mxGeometry>
        </mxCell>
        <mxCell id="38Q99OW14iY6zfwDgIN2-279" value="" style="shape=partialRectangle;html=1;whiteSpace=wrap;connectable=0;strokeColor=inherit;overflow=hidden;fillColor=none;top=0;left=0;bottom=0;right=0;pointerEvents=1;" parent="38Q99OW14iY6zfwDgIN2-274" vertex="1">
          <mxGeometry x="289" width="73" height="66" as="geometry">
            <mxRectangle width="73" height="66" as="alternateBounds" />
          </mxGeometry>
        </mxCell>
        <mxCell id="38Q99OW14iY6zfwDgIN2-280" value="" style="shape=tableRow;horizontal=0;startSize=0;swimlaneHead=0;swimlaneBody=0;strokeColor=inherit;top=0;left=0;bottom=0;right=0;collapsible=0;dropTarget=0;fillColor=none;points=[[0,0.5],[1,0.5]];portConstraint=eastwest;" parent="38Q99OW14iY6zfwDgIN2-273" vertex="1">
          <mxGeometry y="66" width="362" height="65" as="geometry" />
        </mxCell>
        <mxCell id="38Q99OW14iY6zfwDgIN2-281" value="" style="shape=partialRectangle;html=1;whiteSpace=wrap;connectable=0;strokeColor=#314354;overflow=hidden;fillColor=#647687;top=0;left=0;bottom=0;right=0;pointerEvents=1;fontColor=#ffffff;" parent="38Q99OW14iY6zfwDgIN2-280" vertex="1">
          <mxGeometry width="73" height="65" as="geometry">
            <mxRectangle width="73" height="65" as="alternateBounds" />
          </mxGeometry>
        </mxCell>
        <mxCell id="38Q99OW14iY6zfwDgIN2-282" value="" style="shape=partialRectangle;html=1;whiteSpace=wrap;connectable=0;strokeColor=inherit;overflow=hidden;fillColor=none;top=0;left=0;bottom=0;right=0;pointerEvents=1;" parent="38Q99OW14iY6zfwDgIN2-280" vertex="1">
          <mxGeometry x="73" width="72" height="65" as="geometry">
            <mxRectangle width="72" height="65" as="alternateBounds" />
          </mxGeometry>
        </mxCell>
        <mxCell id="38Q99OW14iY6zfwDgIN2-283" value="" style="shape=partialRectangle;html=1;whiteSpace=wrap;connectable=0;strokeColor=inherit;overflow=hidden;fillColor=none;top=0;left=0;bottom=0;right=0;pointerEvents=1;" parent="38Q99OW14iY6zfwDgIN2-280" vertex="1">
          <mxGeometry x="145" width="72" height="65" as="geometry">
            <mxRectangle width="72" height="65" as="alternateBounds" />
          </mxGeometry>
        </mxCell>
        <mxCell id="38Q99OW14iY6zfwDgIN2-284" value="" style="shape=partialRectangle;html=1;whiteSpace=wrap;connectable=0;strokeColor=inherit;overflow=hidden;fillColor=none;top=0;left=0;bottom=0;right=0;pointerEvents=1;" parent="38Q99OW14iY6zfwDgIN2-280" vertex="1">
          <mxGeometry x="217" width="72" height="65" as="geometry">
            <mxRectangle width="72" height="65" as="alternateBounds" />
          </mxGeometry>
        </mxCell>
        <mxCell id="38Q99OW14iY6zfwDgIN2-285" value="" style="shape=partialRectangle;html=1;whiteSpace=wrap;connectable=0;strokeColor=inherit;overflow=hidden;fillColor=none;top=0;left=0;bottom=0;right=0;pointerEvents=1;" parent="38Q99OW14iY6zfwDgIN2-280" vertex="1">
          <mxGeometry x="289" width="73" height="65" as="geometry">
            <mxRectangle width="73" height="65" as="alternateBounds" />
          </mxGeometry>
        </mxCell>
        <mxCell id="38Q99OW14iY6zfwDgIN2-286" value="" style="shape=tableRow;horizontal=0;startSize=0;swimlaneHead=0;swimlaneBody=0;strokeColor=inherit;top=0;left=0;bottom=0;right=0;collapsible=0;dropTarget=0;fillColor=none;points=[[0,0.5],[1,0.5]];portConstraint=eastwest;" parent="38Q99OW14iY6zfwDgIN2-273" vertex="1">
          <mxGeometry y="131" width="362" height="66" as="geometry" />
        </mxCell>
        <mxCell id="38Q99OW14iY6zfwDgIN2-287" value="" style="shape=partialRectangle;html=1;whiteSpace=wrap;connectable=0;strokeColor=inherit;overflow=hidden;fillColor=none;top=0;left=0;bottom=0;right=0;pointerEvents=1;" parent="38Q99OW14iY6zfwDgIN2-286" vertex="1">
          <mxGeometry width="73" height="66" as="geometry">
            <mxRectangle width="73" height="66" as="alternateBounds" />
          </mxGeometry>
        </mxCell>
        <mxCell id="38Q99OW14iY6zfwDgIN2-288" value="" style="shape=partialRectangle;html=1;whiteSpace=wrap;connectable=0;strokeColor=#314354;overflow=hidden;fillColor=#647687;top=0;left=0;bottom=0;right=0;pointerEvents=1;fontColor=#ffffff;" parent="38Q99OW14iY6zfwDgIN2-286" vertex="1">
          <mxGeometry x="73" width="72" height="66" as="geometry">
            <mxRectangle width="72" height="66" as="alternateBounds" />
          </mxGeometry>
        </mxCell>
        <mxCell id="38Q99OW14iY6zfwDgIN2-289" value="" style="shape=partialRectangle;html=1;whiteSpace=wrap;connectable=0;strokeColor=inherit;overflow=hidden;fillColor=none;top=0;left=0;bottom=0;right=0;pointerEvents=1;" parent="38Q99OW14iY6zfwDgIN2-286" vertex="1">
          <mxGeometry x="145" width="72" height="66" as="geometry">
            <mxRectangle width="72" height="66" as="alternateBounds" />
          </mxGeometry>
        </mxCell>
        <mxCell id="38Q99OW14iY6zfwDgIN2-290" value="" style="shape=partialRectangle;html=1;whiteSpace=wrap;connectable=0;strokeColor=inherit;overflow=hidden;fillColor=none;top=0;left=0;bottom=0;right=0;pointerEvents=1;" parent="38Q99OW14iY6zfwDgIN2-286" vertex="1">
          <mxGeometry x="217" width="72" height="66" as="geometry">
            <mxRectangle width="72" height="66" as="alternateBounds" />
          </mxGeometry>
        </mxCell>
        <mxCell id="38Q99OW14iY6zfwDgIN2-291" value="" style="shape=partialRectangle;html=1;whiteSpace=wrap;connectable=0;strokeColor=inherit;overflow=hidden;fillColor=none;top=0;left=0;bottom=0;right=0;pointerEvents=1;" parent="38Q99OW14iY6zfwDgIN2-286" vertex="1">
          <mxGeometry x="289" width="73" height="66" as="geometry">
            <mxRectangle width="73" height="66" as="alternateBounds" />
          </mxGeometry>
        </mxCell>
        <mxCell id="38Q99OW14iY6zfwDgIN2-292" value="" style="shape=tableRow;horizontal=0;startSize=0;swimlaneHead=0;swimlaneBody=0;strokeColor=inherit;top=0;left=0;bottom=0;right=0;collapsible=0;dropTarget=0;fillColor=none;points=[[0,0.5],[1,0.5]];portConstraint=eastwest;" parent="38Q99OW14iY6zfwDgIN2-273" vertex="1">
          <mxGeometry y="197" width="362" height="65" as="geometry" />
        </mxCell>
        <mxCell id="38Q99OW14iY6zfwDgIN2-293" value="" style="shape=partialRectangle;html=1;whiteSpace=wrap;connectable=0;strokeColor=#314354;overflow=hidden;fillColor=none;top=0;left=0;bottom=0;right=0;pointerEvents=1;fontColor=#ffffff;" parent="38Q99OW14iY6zfwDgIN2-292" vertex="1">
          <mxGeometry width="73" height="65" as="geometry">
            <mxRectangle width="73" height="65" as="alternateBounds" />
          </mxGeometry>
        </mxCell>
        <mxCell id="38Q99OW14iY6zfwDgIN2-294" value="" style="shape=partialRectangle;html=1;whiteSpace=wrap;connectable=0;strokeColor=inherit;overflow=hidden;fillColor=none;top=0;left=0;bottom=0;right=0;pointerEvents=1;" parent="38Q99OW14iY6zfwDgIN2-292" vertex="1">
          <mxGeometry x="73" width="72" height="65" as="geometry">
            <mxRectangle width="72" height="65" as="alternateBounds" />
          </mxGeometry>
        </mxCell>
        <mxCell id="38Q99OW14iY6zfwDgIN2-295" value="" style="shape=partialRectangle;html=1;whiteSpace=wrap;connectable=0;strokeColor=#314354;overflow=hidden;fillColor=#647687;top=0;left=0;bottom=0;right=0;pointerEvents=1;fontColor=#ffffff;" parent="38Q99OW14iY6zfwDgIN2-292" vertex="1">
          <mxGeometry x="145" width="72" height="65" as="geometry">
            <mxRectangle width="72" height="65" as="alternateBounds" />
          </mxGeometry>
        </mxCell>
        <mxCell id="38Q99OW14iY6zfwDgIN2-296" value="" style="shape=partialRectangle;html=1;whiteSpace=wrap;connectable=0;strokeColor=inherit;overflow=hidden;fillColor=none;top=0;left=0;bottom=0;right=0;pointerEvents=1;" parent="38Q99OW14iY6zfwDgIN2-292" vertex="1">
          <mxGeometry x="217" width="72" height="65" as="geometry">
            <mxRectangle width="72" height="65" as="alternateBounds" />
          </mxGeometry>
        </mxCell>
        <mxCell id="38Q99OW14iY6zfwDgIN2-297" value="" style="shape=partialRectangle;html=1;whiteSpace=wrap;connectable=0;strokeColor=inherit;overflow=hidden;fillColor=none;top=0;left=0;bottom=0;right=0;pointerEvents=1;" parent="38Q99OW14iY6zfwDgIN2-292" vertex="1">
          <mxGeometry x="289" width="73" height="65" as="geometry">
            <mxRectangle width="73" height="65" as="alternateBounds" />
          </mxGeometry>
        </mxCell>
        <mxCell id="38Q99OW14iY6zfwDgIN2-298" value="" style="shape=tableRow;horizontal=0;startSize=0;swimlaneHead=0;swimlaneBody=0;strokeColor=inherit;top=0;left=0;bottom=0;right=0;collapsible=0;dropTarget=0;fillColor=none;points=[[0,0.5],[1,0.5]];portConstraint=eastwest;" parent="38Q99OW14iY6zfwDgIN2-273" vertex="1">
          <mxGeometry y="262" width="362" height="66" as="geometry" />
        </mxCell>
        <mxCell id="38Q99OW14iY6zfwDgIN2-299" value="" style="shape=partialRectangle;html=1;whiteSpace=wrap;connectable=0;strokeColor=inherit;overflow=hidden;fillColor=none;top=0;left=0;bottom=0;right=0;pointerEvents=1;" parent="38Q99OW14iY6zfwDgIN2-298" vertex="1">
          <mxGeometry width="73" height="66" as="geometry">
            <mxRectangle width="73" height="66" as="alternateBounds" />
          </mxGeometry>
        </mxCell>
        <mxCell id="38Q99OW14iY6zfwDgIN2-300" value="" style="shape=partialRectangle;html=1;whiteSpace=wrap;connectable=0;strokeColor=#314354;overflow=hidden;fillColor=none;top=0;left=0;bottom=0;right=0;pointerEvents=1;fontColor=#ffffff;" parent="38Q99OW14iY6zfwDgIN2-298" vertex="1">
          <mxGeometry x="73" width="72" height="66" as="geometry">
            <mxRectangle width="72" height="66" as="alternateBounds" />
          </mxGeometry>
        </mxCell>
        <mxCell id="38Q99OW14iY6zfwDgIN2-301" value="" style="shape=partialRectangle;html=1;whiteSpace=wrap;connectable=0;strokeColor=inherit;overflow=hidden;fillColor=none;top=0;left=0;bottom=0;right=0;pointerEvents=1;" parent="38Q99OW14iY6zfwDgIN2-298" vertex="1">
          <mxGeometry x="145" width="72" height="66" as="geometry">
            <mxRectangle width="72" height="66" as="alternateBounds" />
          </mxGeometry>
        </mxCell>
        <mxCell id="38Q99OW14iY6zfwDgIN2-302" value="" style="shape=partialRectangle;html=1;whiteSpace=wrap;connectable=0;strokeColor=#314354;overflow=hidden;fillColor=#647687;top=0;left=0;bottom=0;right=0;pointerEvents=1;fontColor=#ffffff;" parent="38Q99OW14iY6zfwDgIN2-298" vertex="1">
          <mxGeometry x="217" width="72" height="66" as="geometry">
            <mxRectangle width="72" height="66" as="alternateBounds" />
          </mxGeometry>
        </mxCell>
        <mxCell id="38Q99OW14iY6zfwDgIN2-303" value="" style="shape=partialRectangle;html=1;whiteSpace=wrap;connectable=0;strokeColor=inherit;overflow=hidden;fillColor=none;top=0;left=0;bottom=0;right=0;pointerEvents=1;" parent="38Q99OW14iY6zfwDgIN2-298" vertex="1">
          <mxGeometry x="289" width="73" height="66" as="geometry">
            <mxRectangle width="73" height="66" as="alternateBounds" />
          </mxGeometry>
        </mxCell>
        <mxCell id="38Q99OW14iY6zfwDgIN2-353" value="" style="shape=table;startSize=0;container=1;collapsible=0;childLayout=tableLayout;" parent="1" vertex="1">
          <mxGeometry x="-75" y="682" width="71" height="329" as="geometry" />
        </mxCell>
        <mxCell id="38Q99OW14iY6zfwDgIN2-354" value="" style="shape=tableRow;horizontal=0;startSize=0;swimlaneHead=0;swimlaneBody=0;strokeColor=inherit;top=0;left=0;bottom=0;right=0;collapsible=0;dropTarget=0;fillColor=none;points=[[0,0.5],[1,0.5]];portConstraint=eastwest;" parent="38Q99OW14iY6zfwDgIN2-353" vertex="1">
          <mxGeometry width="71" height="66" as="geometry" />
        </mxCell>
        <mxCell id="38Q99OW14iY6zfwDgIN2-355" value="" style="shape=partialRectangle;html=1;whiteSpace=wrap;connectable=0;strokeColor=inherit;overflow=hidden;fillColor=none;top=0;left=0;bottom=0;right=0;pointerEvents=1;fontSize=16;" parent="38Q99OW14iY6zfwDgIN2-354" vertex="1">
          <mxGeometry width="71" height="66" as="geometry">
            <mxRectangle width="71" height="66" as="alternateBounds" />
          </mxGeometry>
        </mxCell>
        <mxCell id="38Q99OW14iY6zfwDgIN2-356" value="" style="shape=tableRow;horizontal=0;startSize=0;swimlaneHead=0;swimlaneBody=0;strokeColor=inherit;top=0;left=0;bottom=0;right=0;collapsible=0;dropTarget=0;fillColor=none;points=[[0,0.5],[1,0.5]];portConstraint=eastwest;" parent="38Q99OW14iY6zfwDgIN2-353" vertex="1">
          <mxGeometry y="66" width="71" height="66" as="geometry" />
        </mxCell>
        <mxCell id="38Q99OW14iY6zfwDgIN2-357" value="" style="shape=partialRectangle;html=1;whiteSpace=wrap;connectable=0;strokeColor=inherit;overflow=hidden;fillColor=none;top=0;left=0;bottom=0;right=0;pointerEvents=1;fontSize=16;" parent="38Q99OW14iY6zfwDgIN2-356" vertex="1">
          <mxGeometry width="71" height="66" as="geometry">
            <mxRectangle width="71" height="66" as="alternateBounds" />
          </mxGeometry>
        </mxCell>
        <mxCell id="38Q99OW14iY6zfwDgIN2-358" value="" style="shape=tableRow;horizontal=0;startSize=0;swimlaneHead=0;swimlaneBody=0;strokeColor=inherit;top=0;left=0;bottom=0;right=0;collapsible=0;dropTarget=0;fillColor=none;points=[[0,0.5],[1,0.5]];portConstraint=eastwest;" parent="38Q99OW14iY6zfwDgIN2-353" vertex="1">
          <mxGeometry y="132" width="71" height="65" as="geometry" />
        </mxCell>
        <mxCell id="38Q99OW14iY6zfwDgIN2-359" value="" style="shape=partialRectangle;html=1;whiteSpace=wrap;connectable=0;strokeColor=inherit;overflow=hidden;fillColor=none;top=0;left=0;bottom=0;right=0;pointerEvents=1;fontSize=16;" parent="38Q99OW14iY6zfwDgIN2-358" vertex="1">
          <mxGeometry width="71" height="65" as="geometry">
            <mxRectangle width="71" height="65" as="alternateBounds" />
          </mxGeometry>
        </mxCell>
        <mxCell id="38Q99OW14iY6zfwDgIN2-360" value="" style="shape=tableRow;horizontal=0;startSize=0;swimlaneHead=0;swimlaneBody=0;strokeColor=inherit;top=0;left=0;bottom=0;right=0;collapsible=0;dropTarget=0;fillColor=none;points=[[0,0.5],[1,0.5]];portConstraint=eastwest;" parent="38Q99OW14iY6zfwDgIN2-353" vertex="1">
          <mxGeometry y="197" width="71" height="66" as="geometry" />
        </mxCell>
        <mxCell id="38Q99OW14iY6zfwDgIN2-361" value="" style="shape=partialRectangle;html=1;whiteSpace=wrap;connectable=0;strokeColor=inherit;overflow=hidden;fillColor=none;top=0;left=0;bottom=0;right=0;pointerEvents=1;fontSize=16;" parent="38Q99OW14iY6zfwDgIN2-360" vertex="1">
          <mxGeometry width="71" height="66" as="geometry">
            <mxRectangle width="71" height="66" as="alternateBounds" />
          </mxGeometry>
        </mxCell>
        <mxCell id="38Q99OW14iY6zfwDgIN2-362" value="" style="shape=tableRow;horizontal=0;startSize=0;swimlaneHead=0;swimlaneBody=0;strokeColor=inherit;top=0;left=0;bottom=0;right=0;collapsible=0;dropTarget=0;fillColor=none;points=[[0,0.5],[1,0.5]];portConstraint=eastwest;" parent="38Q99OW14iY6zfwDgIN2-353" vertex="1">
          <mxGeometry y="263" width="71" height="66" as="geometry" />
        </mxCell>
        <mxCell id="38Q99OW14iY6zfwDgIN2-363" value="" style="shape=partialRectangle;html=1;whiteSpace=wrap;connectable=0;strokeColor=#314354;overflow=hidden;fillColor=#647687;top=0;left=0;bottom=0;right=0;pointerEvents=1;fontSize=16;fontColor=#ffffff;" parent="38Q99OW14iY6zfwDgIN2-362" vertex="1">
          <mxGeometry width="71" height="66" as="geometry">
            <mxRectangle width="71" height="66" as="alternateBounds" />
          </mxGeometry>
        </mxCell>
        <mxCell id="38Q99OW14iY6zfwDgIN2-364" value="" style="shape=table;startSize=0;container=1;collapsible=0;childLayout=tableLayout;fontSize=16;" parent="1" vertex="1">
          <mxGeometry x="-746" y="690" width="71" height="329" as="geometry" />
        </mxCell>
        <mxCell id="38Q99OW14iY6zfwDgIN2-365" value="" style="shape=tableRow;horizontal=0;startSize=0;swimlaneHead=0;swimlaneBody=0;strokeColor=inherit;top=0;left=0;bottom=0;right=0;collapsible=0;dropTarget=0;fillColor=none;points=[[0,0.5],[1,0.5]];portConstraint=eastwest;" parent="38Q99OW14iY6zfwDgIN2-364" vertex="1">
          <mxGeometry width="71" height="66" as="geometry" />
        </mxCell>
        <mxCell id="38Q99OW14iY6zfwDgIN2-366" value="" style="shape=partialRectangle;html=1;whiteSpace=wrap;connectable=0;strokeColor=inherit;overflow=hidden;fillColor=none;top=0;left=0;bottom=0;right=0;pointerEvents=1;fontSize=16;" parent="38Q99OW14iY6zfwDgIN2-365" vertex="1">
          <mxGeometry width="71" height="66" as="geometry">
            <mxRectangle width="71" height="66" as="alternateBounds" />
          </mxGeometry>
        </mxCell>
        <mxCell id="38Q99OW14iY6zfwDgIN2-367" value="" style="shape=tableRow;horizontal=0;startSize=0;swimlaneHead=0;swimlaneBody=0;strokeColor=inherit;top=0;left=0;bottom=0;right=0;collapsible=0;dropTarget=0;fillColor=none;points=[[0,0.5],[1,0.5]];portConstraint=eastwest;" parent="38Q99OW14iY6zfwDgIN2-364" vertex="1">
          <mxGeometry y="66" width="71" height="66" as="geometry" />
        </mxCell>
        <mxCell id="38Q99OW14iY6zfwDgIN2-368" value="" style="shape=partialRectangle;html=1;whiteSpace=wrap;connectable=0;strokeColor=inherit;overflow=hidden;fillColor=none;top=0;left=0;bottom=0;right=0;pointerEvents=1;fontSize=16;" parent="38Q99OW14iY6zfwDgIN2-367" vertex="1">
          <mxGeometry width="71" height="66" as="geometry">
            <mxRectangle width="71" height="66" as="alternateBounds" />
          </mxGeometry>
        </mxCell>
        <mxCell id="38Q99OW14iY6zfwDgIN2-369" value="" style="shape=tableRow;horizontal=0;startSize=0;swimlaneHead=0;swimlaneBody=0;strokeColor=inherit;top=0;left=0;bottom=0;right=0;collapsible=0;dropTarget=0;fillColor=none;points=[[0,0.5],[1,0.5]];portConstraint=eastwest;" parent="38Q99OW14iY6zfwDgIN2-364" vertex="1">
          <mxGeometry y="132" width="71" height="65" as="geometry" />
        </mxCell>
        <mxCell id="38Q99OW14iY6zfwDgIN2-370" value="" style="shape=partialRectangle;html=1;whiteSpace=wrap;connectable=0;strokeColor=inherit;overflow=hidden;fillColor=none;top=0;left=0;bottom=0;right=0;pointerEvents=1;fontSize=16;" parent="38Q99OW14iY6zfwDgIN2-369" vertex="1">
          <mxGeometry width="71" height="65" as="geometry">
            <mxRectangle width="71" height="65" as="alternateBounds" />
          </mxGeometry>
        </mxCell>
        <mxCell id="38Q99OW14iY6zfwDgIN2-371" value="" style="shape=tableRow;horizontal=0;startSize=0;swimlaneHead=0;swimlaneBody=0;strokeColor=inherit;top=0;left=0;bottom=0;right=0;collapsible=0;dropTarget=0;fillColor=none;points=[[0,0.5],[1,0.5]];portConstraint=eastwest;" parent="38Q99OW14iY6zfwDgIN2-364" vertex="1">
          <mxGeometry y="197" width="71" height="66" as="geometry" />
        </mxCell>
        <mxCell id="38Q99OW14iY6zfwDgIN2-372" value="" style="shape=partialRectangle;html=1;whiteSpace=wrap;connectable=0;strokeColor=#314354;overflow=hidden;fillColor=#647687;top=0;left=0;bottom=0;right=0;pointerEvents=1;fontSize=16;fontColor=#ffffff;" parent="38Q99OW14iY6zfwDgIN2-371" vertex="1">
          <mxGeometry width="71" height="66" as="geometry">
            <mxRectangle width="71" height="66" as="alternateBounds" />
          </mxGeometry>
        </mxCell>
        <mxCell id="38Q99OW14iY6zfwDgIN2-373" value="" style="shape=tableRow;horizontal=0;startSize=0;swimlaneHead=0;swimlaneBody=0;strokeColor=inherit;top=0;left=0;bottom=0;right=0;collapsible=0;dropTarget=0;fillColor=none;points=[[0,0.5],[1,0.5]];portConstraint=eastwest;" parent="38Q99OW14iY6zfwDgIN2-364" vertex="1">
          <mxGeometry y="263" width="71" height="66" as="geometry" />
        </mxCell>
        <mxCell id="38Q99OW14iY6zfwDgIN2-374" value="" style="shape=partialRectangle;html=1;whiteSpace=wrap;connectable=0;strokeColor=inherit;overflow=hidden;fillColor=none;top=0;left=0;bottom=0;right=0;pointerEvents=1;fontSize=16;" parent="38Q99OW14iY6zfwDgIN2-373" vertex="1">
          <mxGeometry width="71" height="66" as="geometry">
            <mxRectangle width="71" height="66" as="alternateBounds" />
          </mxGeometry>
        </mxCell>
        <mxCell id="38Q99OW14iY6zfwDgIN2-375" value="" style="ellipse;whiteSpace=wrap;html=1;aspect=fixed;" parent="1" vertex="1">
          <mxGeometry x="37" y="827.5" width="37" height="37" as="geometry" />
        </mxCell>
        <mxCell id="38Q99OW14iY6zfwDgIN2-376" value="" style="ellipse;whiteSpace=wrap;html=1;aspect=fixed;" parent="1" vertex="1">
          <mxGeometry x="-637" y="836" width="37" height="37" as="geometry" />
        </mxCell>
      </root>
    </mxGraphModel>
  </diagram>
</mxfile>
